# xmcd
#
# Track frame offsets:
# 150
# 14912
# 32730
# 53599
# 79957
# 101478
# 114319
# 136414
# 151749
# 173409
# 186400
# 204340
# 227532
# 252459
# 272726
# 293021
# 314131
#
# Disc length: 4376 seconds
#
#
# Revision: 0
# Processed by: cddbd v1.4PL0 Copyright (c) Steve Scherf et al.
# Submitted via: FreeRIP 2.51 
#
DISCID=e9111611
DTITLE=Boyz II Men - The Essential
DYEAR=2000
DGENRE=Blues
TTITLE0=Star Spangled Banner/America Medley
TTITLE1=Motownphilly
TTITLE2=Thank You
TTITLE3=End of the Road
TTITLE4=Hey Lover [w/LL Cool J]
TTITLE5=In the Still of the Night
TTITLE6=4 Seasons of Loneliness
TTITLE7=Water Runs Dry
TTITLE8=U Know
TTITLE9=It's so Hard to Say Goodbye to Yesterday
TTITLE10=I'll Make Love to You
TTITLE11=50 Candles
TTITLE12=On Bended Knee
TTITLE13=Vibin'
TTITLE14=Pass You By
TTITLE15=One Sweet Day [w/Mariah Carey][acapella]
TTITLE16=Yesterday
EXTD=
EXTT0=
EXTT1=
EXTT2=
EXTT3=
EXTT4=
EXTT5=
EXTT6=
EXTT7=
EXTT8=
EXTT9=
EXTT10=
EXTT11=
EXTT12=
EXTT13=
EXTT14=
EXTT15=
EXTT16=
PLAYORDER=
